<svg display="none">
   <defs>
        <symbol id="twitter" viewBox="0 0 24 24" fill="none" xmlns="http://www.w3.org/2000/svg">
            <path d="M23.643 4.93695C22.808 5.30695 21.911 5.55695 20.968 5.66995C21.93 5.09395 22.668 4.17995 23.016 3.09195C22.116 3.62595 21.119 4.01395 20.058 4.22195C19.208 3.31795 17.998 2.75195 16.658 2.75195C14.086 2.75195 12 4.83795 12 7.41195C12 7.77595 12.042 8.12995 12.12 8.47195C8.24701 8.27695 4.81601 6.42195 2.51801 3.60395C2.11801 4.29395 1.88801 5.09395 1.88801 5.94595C1.88801 7.56195 2.71101 8.98895 3.96001 9.82395C3.19601 9.79895 2.47801 9.58995 1.85001 9.24095V9.30095C1.85001 11.558 3.45501 13.441 5.58701 13.869C5.19501 13.975 4.78401 14.031 4.36001 14.031C4.06001 14.031 3.76701 14.003 3.48301 13.949C4.07601 15.799 5.79601 17.147 7.83501 17.183C6.24001 18.433 4.23101 19.178 2.04901 19.178C1.67301 19.178 1.30201 19.156 0.937012 19.113C2.99901 20.436 5.44701 21.206 8.07701 21.206C16.647 21.206 21.332 14.108 21.332 7.95195C21.332 7.75195 21.327 7.54995 21.318 7.34995C22.228 6.69195 23.018 5.87295 23.641 4.93995L23.643 4.93695Z" fill="currentColor"/>
        </symbol>
        <symbol id="ig" viewBox="0 0 24 24" fill="none" xmlns="http://www.w3.org/2000/svg">
            <path d="M12 15.75C14.0711 15.75 15.75 14.0711 15.75 12C15.75 9.92893 14.0711 8.25 12 8.25C9.92893 8.25 8.25 9.92893 8.25 12C8.25 14.0711 9.92893 15.75 12 15.75Z" stroke="currentColor" stroke-width="2" stroke-miterlimit="10"/>
            <path d="M16.125 3.375H7.875C5.38972 3.375 3.375 5.38972 3.375 7.875V16.125C3.375 18.6103 5.38972 20.625 7.875 20.625H16.125C18.6103 20.625 20.625 18.6103 20.625 16.125V7.875C20.625 5.38972 18.6103 3.375 16.125 3.375Z" stroke="currentColor" stroke-width="2" stroke-linecap="round" stroke-linejoin="round"/>
            <path d="M16.875 8.25C17.4963 8.25 18 7.74632 18 7.125C18 6.50368 17.4963 6 16.875 6C16.2537 6 15.75 6.50368 15.75 7.125C15.75 7.74632 16.2537 8.25 16.875 8.25Z" fill="currentColor"/>
        </symbol>
        <symbol id="back" viewBox="0 0 40 40" fill="none" xmlns="http://www.w3.org/2000/svg">
            <path d="M40 20C40 16.0444 38.827 12.1776 36.6294 8.8886C34.4318 5.59962 31.3082 3.03617 27.6537 1.52242C23.9992 0.00866572 19.9778 -0.387401 16.0982 0.384303C12.2186 1.15601 8.65492 3.06082 5.85787 5.85787C3.06082 8.65492 1.15601 12.2186 0.384303 16.0982C-0.387401 19.9778 0.00866572 23.9992 1.52242 27.6537C3.03617 31.3082 5.59962 34.4318 8.8886 36.6294C12.1776 38.827 16.0444 40 20 40C25.3026 39.9943 30.3863 37.8853 34.1358 34.1358C37.8853 30.3863 39.9943 25.3026 40 20ZM17.155 28.6667L9.65501 21.1667C9.34256 20.8541 9.16703 20.4303 9.16703 19.9883C9.16703 19.5464 9.34256 19.1226 9.65501 18.81L17.155 11.31C17.3088 11.1508 17.4927 11.0239 17.696 10.9365C17.8993 10.8492 18.118 10.8032 18.3393 10.8013C18.5606 10.7993 18.7801 10.8415 18.9849 10.9253C19.1898 11.0091 19.3758 11.1329 19.5323 11.2893C19.6888 11.4458 19.8126 11.6319 19.8964 11.8367C19.9802 12.0416 20.0223 12.261 20.0204 12.4823C20.0185 12.7036 19.9725 12.9223 19.8852 13.1257C19.7978 13.329 19.6709 13.5129 19.5117 13.6667L15.5683 17.6183C15.5088 17.6764 15.4679 17.751 15.4511 17.8325C15.4343 17.914 15.4423 17.9987 15.474 18.0756C15.5058 18.1525 15.5598 18.2182 15.6292 18.2641C15.6986 18.3101 15.7801 18.3342 15.8633 18.3333H30C30.442 18.3333 30.866 18.5089 31.1785 18.8215C31.4911 19.1341 31.6667 19.558 31.6667 20C31.6667 20.442 31.4911 20.866 31.1785 21.1785C30.866 21.4911 30.442 21.6667 30 21.6667H15.8633C15.7812 21.6669 15.7009 21.6913 15.6326 21.737C15.5643 21.7827 15.511 21.8476 15.4795 21.9235C15.4479 21.9994 15.4396 22.0829 15.4554 22.1635C15.4712 22.2441 15.5105 22.3183 15.5683 22.3767L19.5117 26.3217C19.7863 26.6409 19.93 27.0523 19.9137 27.4731C19.8974 27.894 19.7224 28.293 19.4238 28.5901C19.1253 28.8871 18.7254 29.0602 18.3045 29.0744C17.8836 29.0886 17.4729 28.9429 17.155 28.6667Z" fill="currentColor"/>
        </symbol>
        <symbol id="subtract" viewBox="0 0 32 32" fill="none" xmlns="http://www.w3.org/2000/svg">
            <path fill-rule="evenodd" clip-rule="evenodd" d="M11.1518 19.7656C11.2494 20.0015 11.394 20.2225 11.5858 20.4142C11.7775 20.606 11.9985 20.7506 12.2344 20.8482C12.4702 20.946 12.7288 21 13 21H20C21.1046 21 22 20.1046 22 19C22 17.8954 21.1046 17 20 17H17.8284L30.157 4.67143C31.3201 6.37998 32 8.44392 32 10.6667V21.3333C32 27.2244 27.2244 32 21.3333 32H10.6667C4.77563 32 0 27.2244 0 21.3333V10.6667C0 4.77563 4.77563 0 10.6667 0H21.3333C23.5561 0 25.62 0.679869 27.3286 1.843L15 14.1716V12C15 10.8954 14.1046 10 13 10C11.8954 10 11 10.8954 11 12V19C11 19.2712 11.054 19.5298 11.1518 19.7656Z" fill="#8D45CD"/>
        </symbol>
        <symbol id="subtract-alt" viewBox="0 0 32 32" fill="none" xmlns="http://www.w3.org/2000/svg">
            <path fill-rule="evenodd" clip-rule="evenodd" d="M11.1518 19.7656C11.2494 20.0015 11.394 20.2225 11.5858 20.4142C11.7775 20.606 11.9985 20.7506 12.2344 20.8482C12.4702 20.946 12.7288 21 13 21H20C21.1046 21 22 20.1046 22 19C22 17.8954 21.1046 17 20 17H17.8284L30.157 4.67143C31.3201 6.37998 32 8.44392 32 10.6667V21.3333C32 27.2244 27.2244 32 21.3333 32H10.6667C4.77563 32 0 27.2244 0 21.3333V10.6667C0 4.77563 4.77563 0 10.6667 0H21.3333C23.5561 0 25.62 0.679869 27.3286 1.843L15 14.1716V12C15 10.8954 14.1046 10 13 10C11.8954 10 11 10.8954 11 12V19C11 19.2712 11.054 19.5298 11.1518 19.7656Z" fill="white"/>
        </symbol>
        <symbol id="android-sm" viewBox="0 0 31 34" fill="none" xmlns="http://www.w3.org/2000/svg">
            <path d="M1.48999 1.61401C1.1225 1.98241 1 2.59641 1 3.33322V30.472C1 31.2089 1.24499 31.8229 1.61248 32.1913L1.73498 32.3141L16.9246 17.0868V16.8412L1.48999 1.61401Z" fill="white" stroke="#8D45CD" stroke-width="2" stroke-linecap="round" stroke-linejoin="round"/>
            <path d="M21.9469 22.2444L16.9246 17.2096V16.8412L21.9469 11.8064L22.0694 11.9292L28.0718 15.3676C29.7867 16.35 29.7867 17.9464 28.0718 18.9288L21.9469 22.2444Z" fill="white" stroke="#8D45CD" stroke-width="2" stroke-linecap="round" stroke-linejoin="round"/>
            <path d="M21.947 22.1216L16.8021 16.964L1.48999 32.314C2.10247 32.928 2.95995 32.928 4.06243 32.4368L21.947 22.1216Z" fill="white" stroke="#8D45CD" stroke-width="2" stroke-linecap="round" stroke-linejoin="round"/>
            <path d="M21.947 11.8064L4.06243 1.614C2.95995 1 2.10247 1.1228 1.48999 1.7368L16.8021 16.964L21.947 11.8064Z" fill="white" stroke="#8D45CD" stroke-width="2" stroke-linecap="round" stroke-linejoin="round"/>
        </symbol>
        <symbol id="ios-sm" viewBox="0 0 20 24" fill="none" xmlns="http://www.w3.org/2000/svg">
            <path d="M16.7826 12.7632C16.7945 11.8432 17.0389 10.9413 17.4929 10.1412C17.9471 9.34116 18.5961 8.6689 19.3799 8.1871C18.882 7.47604 18.2252 6.8909 17.4617 6.47809C16.6981 6.06528 15.8487 5.83614 14.9811 5.80901C13.1304 5.61474 11.3362 6.91645 10.393 6.91645C9.43164 6.91645 7.97965 5.8283 6.41595 5.86052C5.40465 5.89316 4.41889 6.18727 3.55501 6.71412C2.69102 7.24108 1.97838 7.98276 1.48629 8.86699C-0.645196 12.5574 0.94471 17.981 2.9865 20.9641C4.00809 22.4248 5.20201 24.0564 6.76422 23.9985C8.29294 23.9351 8.86388 23.0237 10.7092 23.0237C12.5373 23.0237 13.073 23.9985 14.6669 23.9617C16.3073 23.9351 17.3408 22.4946 18.3265 21.02C19.0606 19.9792 19.6253 18.8289 20 17.6117C19.047 17.2086 18.2338 16.5339 17.6616 15.6716C17.0895 14.8094 16.7838 13.7979 16.7826 12.7632Z" fill="white"/>
            <path d="M13.7721 3.84712C14.6665 2.77339 15.1071 1.39336 15.0005 0C13.634 0.143524 12.3717 0.796601 11.4653 1.8291C11.022 2.33355 10.6826 2.92028 10.4663 3.55598C10.25 4.19167 10.1611 4.86372 10.2048 5.53376C10.8882 5.54086 11.5643 5.39269 12.1823 5.10049C12.8002 4.8084 13.3438 4.37979 13.7721 3.84712Z" fill="white"/>
        </symbol>
        <symbol id="ios" viewBox="0 0 193 64" fill="none" xmlns="http://www.w3.org/2000/svg">
            <path d="M14.1117 62.5999C13.6242 62.5999 13.1485 62.5937 12.6648 62.5828C11.6629 62.5698 10.6633 62.4825 9.67419 62.3219C8.75194 62.163 7.85852 61.8676 7.02341 61.4452C6.19596 61.0264 5.44126 60.4772 4.78822 59.8187C4.12573 59.1679 3.57417 58.4131 3.15541 57.5843C2.73203 56.75 2.43903 55.8558 2.28661 54.9328C2.12201 53.941 2.03296 52.9381 2.02021 51.9328C2.01007 51.5953 1.99679 50.4718 1.99679 50.4718V13.511C1.99679 13.511 2.01093 12.4048 2.02029 12.0798C2.0325 11.0761 2.12103 10.0748 2.28514 9.08449C2.43784 8.15892 2.73107 7.26212 3.15467 6.42514C3.5719 5.59684 4.12039 4.84151 4.77889 4.18843C5.43665 3.52913 6.19377 2.97711 7.02263 2.55248C7.85582 2.13149 8.74754 1.83812 9.66793 1.68218C10.6602 1.51988 11.6633 1.43214 12.6687 1.41968L14.1124 1.40015H178.542L180.003 1.42047C180.999 1.43231 181.993 1.51927 182.976 1.68061C183.906 1.83851 184.807 2.13393 185.649 2.55717C187.31 3.41292 188.661 4.7668 189.513 6.42904C189.93 7.26025 190.219 8.14973 190.37 9.0673C190.536 10.0657 190.629 11.0749 190.648 12.0868C190.652 12.5399 190.652 13.0267 190.652 13.511C190.665 14.111 190.665 14.6821 190.665 15.2579V48.7437C190.665 49.3249 190.665 49.8921 190.652 50.464C190.652 50.9843 190.652 51.4609 190.646 51.9515C190.627 52.9454 190.536 53.9366 190.373 54.9171C190.223 55.8468 189.932 56.748 189.509 57.5891C189.087 58.4089 188.539 59.1572 187.884 59.8062C187.23 60.4682 186.474 61.0207 185.645 61.4422C184.804 61.8678 183.905 62.1643 182.976 62.3219C181.987 62.4834 180.987 62.5706 179.985 62.5828C179.517 62.5937 179.026 62.5999 178.549 62.5999L176.815 62.6031L14.1117 62.5999Z" fill="black"/>
            <path d="M40.2301 32.4812C40.2473 31.1457 40.602 29.8363 41.2612 28.6748C41.9205 27.5133 42.8628 26.5374 44.0005 25.8379C43.2778 24.8057 42.3242 23.9561 41.2157 23.3569C40.1072 22.7576 38.8742 22.425 37.6147 22.3856C34.9279 22.1036 32.3232 23.9934 30.9541 23.9934C29.5585 23.9934 27.4505 22.4136 25.1805 22.4603C23.7122 22.5078 22.2813 22.9347 21.0271 23.6996C19.7729 24.4645 18.7382 25.5412 18.0238 26.8249C14.9295 32.1824 17.2376 40.056 20.2018 44.3866C21.6848 46.5071 23.418 48.8758 25.6859 48.7918C27.9052 48.6998 28.7341 47.3767 31.413 47.3767C34.067 47.3767 34.8446 48.7918 37.1586 48.7384C39.54 48.6998 41.0404 46.6085 42.4714 44.4678C43.5369 42.9569 44.3569 41.2869 44.9008 39.5198C43.5173 38.9347 42.3366 37.9552 41.506 36.7035C40.6754 35.4518 40.2317 33.9834 40.2301 32.4812Z" fill="white"/>
            <path d="M35.8595 19.5376C37.1579 17.9789 37.7976 15.9754 37.6427 13.9526C35.659 14.161 33.8265 15.1091 32.5106 16.608C31.8671 17.3403 31.3743 18.1922 31.0604 19.115C30.7464 20.0378 30.6173 21.0135 30.6806 21.9862C31.6729 21.9964 32.6545 21.7814 33.5515 21.3572C34.4486 20.9331 35.2377 20.3109 35.8595 19.5376Z" fill="white"/>
            <path d="M68.2834 43.4235H60.7099L58.8912 48.7938H55.6834L62.8568 28.925H66.1896L73.363 48.7938H70.1005L68.2834 43.4235ZM61.4943 40.9454H67.4975L64.5381 32.2298H64.4553L61.4943 40.9454Z" fill="white"/>
            <path d="M88.8552 41.5515C88.8552 46.0531 86.4458 48.9453 82.8099 48.9453C81.8888 48.9934 80.9728 48.7813 80.1668 48.333C79.3607 47.8848 78.6971 47.2187 78.2521 46.4109H78.1833V53.5858H75.2098V34.3078H78.088V36.7172H78.1427C78.6082 35.9132 79.283 35.2505 80.0952 34.7996C80.9074 34.3486 81.8267 34.1263 82.7552 34.1562C86.4317 34.1563 88.8552 37.0625 88.8552 41.5515ZM85.7989 41.5515C85.7989 38.6187 84.2833 36.6906 81.9708 36.6906C79.6989 36.6906 78.1708 38.6594 78.1708 41.5515C78.1708 44.4703 79.6989 46.425 81.9708 46.425C84.2833 46.425 85.7989 44.5109 85.7989 41.5515Z" fill="white"/>
            <path d="M104.799 41.5515C104.799 46.0531 102.389 48.9452 98.7536 48.9452C97.8325 48.9934 96.9165 48.7813 96.1105 48.333C95.3044 47.8848 94.6408 47.2187 94.1958 46.4108H94.127V53.5858H91.1535V34.3078H94.0316V36.7172H94.0863C94.5519 35.9132 95.2266 35.2505 96.0388 34.7996C96.851 34.3486 97.7703 34.1263 98.6988 34.1562C102.375 34.1562 104.799 37.0625 104.799 41.5515ZM101.743 41.5515C101.743 38.6187 100.227 36.6906 97.9145 36.6906C95.6426 36.6906 94.1145 38.6593 94.1145 41.5515C94.1145 44.4703 95.6426 46.4249 97.9145 46.4249C100.227 46.4249 101.743 44.5109 101.743 41.5515H101.743Z" fill="white"/>
            <path d="M115.336 43.2578C115.557 45.2282 117.471 46.5218 120.086 46.5218C122.593 46.5218 124.396 45.2281 124.396 43.4515C124.396 41.9093 123.308 40.9859 120.733 40.3531L118.158 39.7328C114.51 38.8515 112.816 37.1453 112.816 34.3765C112.816 30.9484 115.804 28.5938 120.046 28.5938C124.244 28.5938 127.122 30.9484 127.219 34.3765H124.218C124.038 32.3937 122.399 31.1969 120.003 31.1969C117.608 31.1969 115.969 32.4078 115.969 34.1703C115.969 35.575 117.016 36.4015 119.577 37.0343L121.766 37.5718C125.843 38.5359 127.536 40.1734 127.536 43.0796C127.536 46.7968 124.575 49.1249 119.866 49.1249C115.46 49.1249 112.485 46.8514 112.293 43.2577L115.336 43.2578Z" fill="white"/>
            <path d="M133.953 30.8796V34.3078H136.708V36.6624H133.953V44.6483C133.953 45.889 134.505 46.4671 135.716 46.4671C136.043 46.4614 136.369 46.4384 136.694 46.3983V48.7389C136.15 48.8406 135.596 48.8867 135.043 48.8764C132.11 48.8764 130.966 47.7748 130.966 44.9655V36.6624H128.86V34.3078H130.966V30.8796H133.953Z" fill="white"/>
            <path d="M138.303 41.5515C138.303 36.9937 140.988 34.1296 145.174 34.1296C149.374 34.1296 152.046 36.9936 152.046 41.5515C152.046 46.1218 149.388 48.9733 145.174 48.9733C140.961 48.9733 138.303 46.1218 138.303 41.5515ZM149.016 41.5515C149.016 38.4249 147.583 36.5796 145.174 36.5796C142.764 36.5796 141.333 38.439 141.333 41.5515C141.333 44.6905 142.764 46.5218 145.174 46.5218C147.583 46.5218 149.016 44.6905 149.016 41.5515H149.016Z" fill="white"/>
            <path d="M154.497 34.3079H157.333V36.7735H157.402C157.594 36.0034 158.045 35.3229 158.679 34.8463C159.314 34.3697 160.093 34.126 160.886 34.1563C161.229 34.1551 161.571 34.1923 161.905 34.2673V37.0485C161.472 36.9163 161.021 36.8556 160.569 36.8688C160.137 36.8513 159.706 36.9275 159.307 37.0921C158.907 37.2567 158.547 37.5059 158.253 37.8225C157.959 38.1391 157.736 38.5157 157.601 38.9264C157.466 39.337 157.422 39.7721 157.471 40.2016V48.7938H154.497L154.497 34.3079Z" fill="white"/>
            <path d="M175.614 44.539C175.214 47.1686 172.653 48.9733 169.377 48.9733C165.163 48.9733 162.547 46.1499 162.547 41.6202C162.547 37.0765 165.177 34.1296 169.252 34.1296C173.26 34.1296 175.78 36.8827 175.78 41.2749V42.2937H165.549V42.4734C165.501 43.0065 165.568 43.5435 165.744 44.0489C165.921 44.5542 166.203 45.0163 166.571 45.4044C166.94 45.7924 167.387 46.0976 167.882 46.2997C168.378 46.5018 168.911 46.5961 169.446 46.5765C170.148 46.6423 170.853 46.4796 171.456 46.1125C172.059 45.7454 172.527 45.1935 172.791 44.539L175.614 44.539ZM165.563 40.2156H172.805C172.832 39.7362 172.759 39.2565 172.591 38.8066C172.424 38.3566 172.165 37.9462 171.832 37.601C171.498 37.2557 171.097 36.9832 170.653 36.8004C170.209 36.6177 169.732 36.5287 169.252 36.539C168.768 36.5361 168.288 36.6291 167.839 36.8127C167.391 36.9963 166.984 37.2668 166.641 37.6086C166.298 37.9505 166.026 38.3568 165.841 38.8042C165.656 39.2517 165.561 39.7314 165.563 40.2156V40.2156Z" fill="white"/>
            <path d="M61.1217 13.9696C61.7451 13.9248 62.3706 14.019 62.9532 14.2453C63.5357 14.4716 64.0608 14.8244 64.4906 15.2782C64.9203 15.732 65.244 16.2755 65.4382 16.8695C65.6325 17.4635 65.6924 18.0933 65.6138 18.7133C65.6138 21.7633 63.9654 23.5165 61.1217 23.5165H57.6733V13.9696H61.1217ZM59.156 22.1663H60.956C61.4015 22.193 61.8473 22.1199 62.2609 21.9526C62.6746 21.7852 63.0457 21.5277 63.3473 21.1988C63.6489 20.8699 63.8734 20.4778 64.0043 20.0512C64.1353 19.6247 64.1695 19.1742 64.1045 18.7328C64.1648 18.293 64.1271 17.8454 63.9941 17.4219C63.8611 16.9985 63.6361 16.6097 63.3352 16.2834C63.0343 15.9571 62.665 15.7014 62.2537 15.5346C61.8423 15.3678 61.3992 15.2941 60.956 15.3187H59.156V22.1663Z" fill="white"/>
            <path d="M67.2889 19.911C67.2436 19.4376 67.2977 18.9599 67.4479 18.5086C67.598 18.0573 67.8408 17.6423 68.1607 17.2903C68.4806 16.9384 68.8706 16.6571 69.3055 16.4647C69.7405 16.2723 70.2109 16.1729 70.6865 16.1729C71.1621 16.1729 71.6325 16.2723 72.0675 16.4647C72.5024 16.6571 72.8924 16.9384 73.2123 17.2903C73.5322 17.6423 73.775 18.0573 73.9251 18.5086C74.0753 18.9599 74.1294 19.4376 74.0841 19.911C74.1303 20.385 74.0768 20.8634 73.927 21.3154C73.7773 21.7674 73.5346 22.1831 73.2146 22.5358C72.8946 22.8885 72.5044 23.1703 72.069 23.3631C71.6336 23.556 71.1627 23.6556 70.6865 23.6556C70.2103 23.6556 69.7394 23.556 69.304 23.3631C68.8686 23.1703 68.4784 22.8885 68.1584 22.5358C67.8384 22.1831 67.5957 21.7674 67.446 21.3154C67.2962 20.8634 67.2427 20.385 67.2889 19.911ZM72.6216 19.911C72.6216 18.3493 71.9201 17.4361 70.6888 17.4361C69.4529 17.4361 68.7577 18.3493 68.7577 19.9111C68.7577 21.4853 69.453 22.3915 70.6888 22.3915C71.9201 22.3915 72.6217 21.479 72.6217 19.911H72.6216Z" fill="white"/>
            <path d="M83.1169 23.5164H81.6419L80.1529 18.2102H80.0404L78.5576 23.5164H77.0966L75.1107 16.3118H76.5529L77.8435 21.8094H77.9498L79.431 16.3118H80.7951L82.2763 21.8094H82.3888L83.6732 16.3118H85.095L83.1169 23.5164Z" fill="white"/>
            <path d="M86.7654 16.3117H88.1341V17.4562H88.2403C88.4206 17.0451 88.7246 16.7005 89.11 16.4705C89.4954 16.2404 89.943 16.1363 90.3903 16.1726C90.7409 16.1463 91.0929 16.1991 91.4202 16.3273C91.7476 16.4554 92.0419 16.6556 92.2814 16.9129C92.5209 17.1703 92.6994 17.4782 92.8037 17.8139C92.9081 18.1496 92.9355 18.5045 92.8841 18.8523V23.5163H91.4622V19.2093C91.4622 18.0515 90.9591 17.4758 89.9075 17.4758C89.6695 17.4647 89.4319 17.5052 89.211 17.5945C88.9901 17.6838 88.7912 17.8199 88.6278 17.9933C88.4644 18.1667 88.3404 18.3734 88.2644 18.5992C88.1883 18.825 88.162 19.0646 88.1872 19.3015V23.5164H86.7653L86.7654 16.3117Z" fill="white"/>
            <path d="M95.1497 13.4993H96.5715V23.5164H95.1497V13.4993Z" fill="white"/>
            <path d="M98.5481 19.9109C98.5029 19.4374 98.5571 18.9597 98.7072 18.5084C98.8574 18.057 99.1003 17.6421 99.4202 17.2901C99.7401 16.9381 100.13 16.6569 100.565 16.4645C101 16.272 101.471 16.1726 101.946 16.1726C102.422 16.1726 102.892 16.272 103.327 16.4645C103.762 16.6569 104.152 16.9381 104.472 17.2901C104.792 17.6421 105.035 18.057 105.185 18.5084C105.335 18.9597 105.389 19.4374 105.344 19.9109C105.39 20.3849 105.337 20.8633 105.187 21.3153C105.037 21.7674 104.794 22.1831 104.474 22.5357C104.154 22.8884 103.764 23.1702 103.329 23.363C102.893 23.5558 102.422 23.6555 101.946 23.6555C101.47 23.6555 100.999 23.5558 100.564 23.363C100.128 23.1702 99.7379 22.8884 99.4179 22.5357C99.0979 22.1831 98.8552 21.7674 98.7054 21.3153C98.5556 20.8633 98.502 20.3849 98.5481 19.9109ZM103.881 19.9109C103.881 18.3492 103.179 17.436 101.948 17.436C100.712 17.436 100.017 18.3492 100.017 19.9109C100.017 21.4852 100.712 22.3914 101.948 22.3914C103.179 22.3914 103.881 21.4789 103.881 19.9109H103.881Z" fill="white"/>
            <path d="M106.841 21.4788C106.841 20.182 107.807 19.4343 109.521 19.3281L111.472 19.2156V18.5937C111.472 17.8327 110.969 17.4031 109.997 17.4031C109.204 17.4031 108.654 17.6945 108.496 18.2038H107.119C107.265 16.9663 108.429 16.1726 110.063 16.1726C111.869 16.1726 112.888 17.0718 112.888 18.5937V23.5163H111.519V22.5038H111.407C111.178 22.867 110.858 23.1631 110.477 23.3618C110.097 23.5606 109.671 23.6548 109.243 23.635C108.94 23.6665 108.634 23.6342 108.345 23.5403C108.056 23.4464 107.79 23.2929 107.563 23.0898C107.337 22.8866 107.156 22.6383 107.032 22.3608C106.907 22.0834 106.842 21.7829 106.841 21.4788ZM111.472 20.8632V20.2609L109.713 20.3734C108.721 20.4398 108.271 20.7773 108.271 21.4124C108.271 22.0608 108.833 22.4382 109.607 22.4382C109.833 22.4611 110.062 22.4382 110.28 22.3709C110.498 22.3036 110.699 22.1931 110.873 22.0462C111.047 21.8992 111.19 21.7188 111.293 21.5155C111.396 21.3123 111.457 21.0905 111.472 20.8632Z" fill="white"/>
            <path d="M114.757 19.911C114.757 17.6344 115.927 16.1923 117.747 16.1923C118.198 16.1715 118.644 16.2793 119.036 16.5032C119.427 16.727 119.746 17.0576 119.957 17.4562H120.063V13.4993H121.485V23.5164H120.122V22.3781H120.01C119.783 22.7741 119.453 23.1006 119.054 23.3221C118.655 23.5437 118.203 23.652 117.747 23.6352C115.914 23.6352 114.757 22.193 114.757 19.911ZM116.225 19.911C116.225 21.4391 116.946 22.3586 118.15 22.3586C119.349 22.3586 120.089 21.4258 120.089 19.9172C120.089 18.4157 119.341 17.4696 118.15 17.4696C116.954 17.4696 116.225 18.3954 116.225 19.911H116.225Z" fill="white"/>
            <path d="M127.368 19.911C127.322 19.4376 127.376 18.9599 127.527 18.5086C127.677 18.0573 127.92 17.6423 128.239 17.2903C128.559 16.9384 128.949 16.6571 129.384 16.4647C129.819 16.2723 130.29 16.1729 130.765 16.1729C131.241 16.1729 131.711 16.2723 132.146 16.4647C132.581 16.6571 132.971 16.9384 133.291 17.2903C133.611 17.6423 133.854 18.0573 134.004 18.5086C134.154 18.9599 134.208 19.4376 134.163 19.911C134.209 20.385 134.155 20.8634 134.006 21.3154C133.856 21.7674 133.613 22.1831 133.293 22.5358C132.973 22.8885 132.583 23.1703 132.148 23.3631C131.712 23.556 131.241 23.6556 130.765 23.6556C130.289 23.6556 129.818 23.556 129.383 23.3631C128.947 23.1703 128.557 22.8885 128.237 22.5358C127.917 22.1831 127.674 21.7674 127.525 21.3154C127.375 20.8634 127.321 20.385 127.368 19.911ZM132.7 19.911C132.7 18.3493 131.999 17.4361 130.768 17.4361C129.532 17.4361 128.836 18.3493 128.836 19.9111C128.836 21.4853 129.532 22.3915 130.768 22.3915C131.999 22.3915 132.7 21.479 132.7 19.911Z" fill="white"/>
            <path d="M136.071 16.3117H137.439V17.4562H137.546C137.726 17.0451 138.03 16.7005 138.415 16.4705C138.801 16.2404 139.248 16.1363 139.696 16.1726C140.046 16.1463 140.398 16.1991 140.726 16.3273C141.053 16.4554 141.347 16.6556 141.587 16.9129C141.826 17.1703 142.005 17.4782 142.109 17.8139C142.213 18.1496 142.241 18.5045 142.189 18.8523V23.5163H140.768V19.2093C140.768 18.0515 140.264 17.4758 139.213 17.4758C138.975 17.4647 138.737 17.5052 138.516 17.5945C138.295 17.6838 138.096 17.8199 137.933 17.9933C137.77 18.1667 137.646 18.3734 137.57 18.5992C137.494 18.825 137.467 19.0646 137.493 19.3015V23.5164H136.071V16.3117Z" fill="white"/>
            <path d="M150.224 14.5181V16.3446H151.785V17.5423H150.224V21.247C150.224 22.0016 150.535 22.3321 151.242 22.3321C151.424 22.3315 151.605 22.3206 151.785 22.2993V23.4836C151.529 23.5293 151.271 23.5536 151.011 23.5563C149.43 23.5563 148.8 23 148.8 21.611V17.5422H147.657V16.3446H148.8V14.5181H150.224Z" fill="white"/>
            <path d="M153.727 13.4993H155.136V17.4696H155.249C155.438 17.0547 155.75 16.7081 156.143 16.4772C156.536 16.2462 156.991 16.1421 157.446 16.179C157.794 16.16 158.143 16.2182 158.467 16.3495C158.79 16.4807 159.081 16.6818 159.318 16.9383C159.555 17.1949 159.732 17.5006 159.838 17.8336C159.943 18.1666 159.973 18.5187 159.927 18.8649V23.5164H158.503V19.2156C158.503 18.0649 157.967 17.4821 156.963 17.4821C156.718 17.462 156.473 17.4956 156.243 17.5805C156.013 17.6654 155.804 17.7995 155.631 17.9735C155.458 18.1475 155.326 18.3571 155.242 18.5877C155.159 18.8183 155.127 19.0644 155.149 19.3086V23.5164H153.727L153.727 13.4993Z" fill="white"/>
            <path d="M168.217 21.5711C168.024 22.2296 167.606 22.7992 167.035 23.1802C166.464 23.5613 165.778 23.7295 165.096 23.6555C164.621 23.668 164.149 23.5771 163.713 23.3891C163.277 23.201 162.887 22.9204 162.571 22.5665C162.254 22.2127 162.018 21.7942 161.879 21.3401C161.741 20.886 161.703 20.4071 161.767 19.9368C161.704 19.465 161.743 18.9851 161.881 18.5296C162.02 18.0741 162.255 17.6537 162.569 17.2968C162.884 16.9399 163.272 16.6548 163.707 16.4609C164.142 16.2669 164.613 16.1687 165.089 16.1727C167.094 16.1727 168.303 17.5423 168.303 19.8047V20.3009H163.216V20.3805C163.194 20.6449 163.227 20.9111 163.313 21.1619C163.4 21.4127 163.538 21.6426 163.719 21.8369C163.899 22.0312 164.119 22.1857 164.362 22.2903C164.606 22.395 164.869 22.4475 165.135 22.4445C165.475 22.4854 165.819 22.4241 166.125 22.2686C166.43 22.1131 166.682 21.8703 166.849 21.5711L168.217 21.5711ZM163.216 19.2493H166.855C166.873 19.0075 166.84 18.7646 166.758 18.5362C166.677 18.3079 166.548 18.0991 166.381 17.9234C166.214 17.7476 166.013 17.6087 165.789 17.5156C165.565 17.4225 165.324 17.3773 165.081 17.3829C164.836 17.3798 164.591 17.426 164.364 17.5187C164.136 17.6114 163.929 17.7488 163.755 17.9227C163.581 18.0966 163.444 18.3036 163.351 18.5315C163.259 18.7593 163.213 19.0034 163.216 19.2493H163.216Z" fill="white"/>
        </symbol>
        <symbol id="android" viewBox="0 0 124 40" fill="none" xmlns="http://www.w3.org/2000/svg">
            <path d="M8.9108 39.7419C8.59629 39.7419 8.28938 39.7379 7.97734 39.7309C7.33092 39.7224 6.68601 39.6662 6.04791 39.5625C5.4529 39.46 4.8765 39.2695 4.33772 38.997C3.80388 38.7267 3.31697 38.3724 2.89566 37.9476C2.46824 37.5277 2.11239 37.0407 1.84223 36.506C1.56908 35.9678 1.38005 35.3909 1.28171 34.7954C1.17552 34.1555 1.11806 33.5084 1.10984 32.8599C1.10329 32.6422 1.09473 31.9173 1.09473 31.9173V8.07158C1.09473 8.07158 1.10385 7.35787 1.10989 7.14819C1.11776 6.50063 1.17488 5.85461 1.28076 5.21573C1.37928 4.61859 1.56845 4.04001 1.84175 3.50001C2.11093 2.96562 2.46479 2.47831 2.88964 2.05697C3.314 1.63162 3.80247 1.27547 4.33722 1.00151C4.87476 0.729907 5.45006 0.540632 6.04387 0.440028C6.68407 0.335322 7.33122 0.278713 7.97988 0.270676L8.91131 0.258072H114.995L115.938 0.271182C116.581 0.278819 117.222 0.334923 117.855 0.439016C118.455 0.54089 119.037 0.731486 119.58 1.00454C120.652 1.55664 121.524 2.43011 122.073 3.50253C122.343 4.0388 122.528 4.61266 122.627 5.20464C122.733 5.84877 122.793 6.49987 122.805 7.15273C122.808 7.44507 122.808 7.75908 122.808 8.07158C122.816 8.45868 122.816 8.82712 122.816 9.19859V30.8024C122.816 31.1774 122.816 31.5433 122.808 31.9123C122.808 32.248 122.808 32.5555 122.804 32.872C122.793 33.5132 122.734 34.1527 122.628 34.7852C122.532 35.3851 122.344 35.9665 122.07 36.5091C121.799 37.038 121.445 37.5208 121.022 37.9395C120.6 38.3667 120.113 38.723 119.577 38.995C119.035 39.2696 118.455 39.4609 117.855 39.5625C117.217 39.6668 116.572 39.7231 115.926 39.7309C115.624 39.7379 115.308 39.7419 115 39.7419L113.881 39.744L8.9108 39.7419Z" fill="black"/>
            <path d="M41.0831 10.293C41.0831 11.0896 40.846 11.7251 40.3718 12.1898C39.8406 12.7494 39.1388 13.0339 38.2852 13.0339C37.4601 13.0339 36.7678 12.7494 36.1892 12.1803C35.6107 11.6113 35.3262 10.8999 35.3262 10.0653C35.3262 9.22123 35.6107 8.5194 36.1892 7.95035C36.7678 7.3813 37.4601 7.09679 38.2852 7.09679C38.6931 7.09679 39.0819 7.17266 39.4518 7.33389C39.8217 7.49512 40.1157 7.70377 40.3433 7.96933L39.8406 8.47198C39.4613 8.02623 38.9491 7.79861 38.2852 7.79861C37.6877 7.79861 37.1661 8.00726 36.7298 8.43405C36.2936 8.85135 36.0754 9.40143 36.0754 10.0748C36.0754 10.7482 36.2936 11.2983 36.7298 11.7156C37.1661 12.1329 37.6877 12.351 38.2852 12.351C38.9207 12.351 39.4518 12.1424 39.8786 11.7156C40.1536 11.4405 40.3149 11.0517 40.3528 10.5585H38.2852V9.87564H41.0451C41.0641 10.0179 41.0831 10.1602 41.0831 10.293Z" fill="white" stroke="white" stroke-width="0.2" stroke-miterlimit="10"/>
            <path d="M45.4554 7.92191H42.8663V9.7239H45.1994V10.4068H42.8663V12.2088H45.4554V12.9106H42.136V7.22008H45.4554V7.92191Z" fill="white" stroke="white" stroke-width="0.2" stroke-miterlimit="10"/>
            <path d="M48.5377 12.9106H47.8075V7.92191H46.2141V7.22008H50.1216V7.92191H48.5283V12.9106H48.5377Z" fill="white" stroke="white" stroke-width="0.2" stroke-miterlimit="10"/>
            <path d="M52.9573 12.9106V7.22008H53.6876V12.9106H52.9573Z" fill="white" stroke="white" stroke-width="0.2" stroke-miterlimit="10"/>
            <path d="M56.9313 12.9106H56.201V7.92191H54.6077V7.22008H58.5151V7.92191H56.9218V12.9106H56.9313Z" fill="white" stroke="white" stroke-width="0.2" stroke-miterlimit="10"/>
            <path d="M65.9222 12.1708C65.3626 12.7494 64.6703 13.0339 63.8357 13.0339C63.0011 13.0339 62.3087 12.7494 61.7492 12.1708C61.1896 11.5923 60.9146 10.8905 60.9146 10.0653C60.9146 9.2402 61.1896 8.52889 61.7492 7.95984C62.3087 7.3813 63.0011 7.09679 63.8357 7.09679C64.6608 7.09679 65.3531 7.3813 65.9222 7.95984C66.4818 8.53837 66.7663 9.2402 66.7663 10.0653C66.7568 10.8999 66.4818 11.6018 65.9222 12.1708ZM62.2898 11.6966C62.7071 12.1234 63.2287 12.3321 63.8357 12.3321C64.4427 12.3321 64.9643 12.1234 65.3816 11.6966C65.7989 11.2698 66.017 10.7292 66.017 10.0653C66.017 9.40143 65.8084 8.86083 65.3816 8.43405C64.9643 8.00726 64.4427 7.79861 63.8357 7.79861C63.2287 7.79861 62.7071 8.00726 62.2898 8.43405C61.8725 8.86083 61.6543 9.40143 61.6543 10.0653C61.6543 10.7292 61.8725 11.2698 62.2898 11.6966Z" fill="white" stroke="white" stroke-width="0.2" stroke-miterlimit="10"/>
            <path d="M67.7905 12.9106V7.22008H68.682L71.4514 11.6492H71.4799L71.4514 10.549V7.22008H72.1817V12.9106H71.423L68.5303 8.27282H68.5018L68.5303 9.37299V12.9106H67.7905Z" fill="white" stroke="white" stroke-width="0.2" stroke-miterlimit="10"/>
            <path d="M60.7344 21.2092C58.5056 21.2092 56.6846 22.9069 56.6846 25.24C56.6846 27.5636 58.5056 29.2708 60.7344 29.2708C62.9631 29.2708 64.7841 27.5636 64.7841 25.24C64.7841 22.9069 62.9631 21.2092 60.7344 21.2092ZM60.7344 27.6869C59.5109 27.6869 58.4581 26.6816 58.4581 25.24C58.4581 23.7889 59.5109 22.7931 60.7344 22.7931C61.9578 22.7931 63.0106 23.7889 63.0106 25.24C63.0106 26.6816 61.9483 27.6869 60.7344 27.6869ZM51.8951 21.2092C49.6663 21.2092 47.8454 22.9069 47.8454 25.24C47.8454 27.5636 49.6663 29.2708 51.8951 29.2708C54.1239 29.2708 55.9448 27.5636 55.9448 25.24C55.9448 22.9069 54.1239 21.2092 51.8951 21.2092ZM51.8951 27.6869C50.6716 27.6869 49.6189 26.6816 49.6189 25.24C49.6189 23.7889 50.6716 22.7931 51.8951 22.7931C53.1186 22.7931 54.1713 23.7889 54.1713 25.24C54.1713 26.6816 53.1186 27.6869 51.8951 27.6869ZM41.3866 22.4517V24.1588H45.4838C45.3605 25.1167 45.038 25.828 44.5543 26.3117C43.9568 26.9092 43.0274 27.5636 41.3961 27.5636C38.8733 27.5636 36.9006 25.534 36.9006 23.0112C36.9006 20.4884 38.8733 18.4588 41.3961 18.4588C42.7523 18.4588 43.7482 18.9899 44.4785 19.6823L45.683 18.4778C44.6587 17.5009 43.3024 16.7517 41.3866 16.7517C37.9344 16.7517 35.0322 19.559 35.0322 23.0207C35.0322 26.473 37.9344 29.2898 41.3866 29.2898C43.255 29.2898 44.6587 28.6828 45.7588 27.5352C46.8874 26.4066 47.2384 24.8132 47.2384 23.5329C47.2384 23.1345 47.2099 22.7646 47.1435 22.4612H41.3866V22.4517ZM84.3594 23.7795C84.0275 22.8785 83.0032 21.2092 80.9072 21.2092C78.8302 21.2092 77.104 22.8405 77.104 25.24C77.104 27.4973 78.8112 29.2708 81.1064 29.2708C82.9558 29.2708 84.0275 28.1422 84.4638 27.4878L83.0886 26.5678C82.6333 27.2412 82.0074 27.6869 81.1064 27.6869C80.2054 27.6869 79.5604 27.2696 79.1526 26.4635L84.5491 24.2347L84.3594 23.7795ZM78.8586 25.1262C78.8112 23.5708 80.0631 22.7741 80.9641 22.7741C81.6659 22.7741 82.2634 23.125 82.4626 23.6277L78.8586 25.1262ZM74.4769 29.0337H76.2505V17.1785H74.4769V29.0337ZM71.5748 22.1102H71.5084C71.11 21.636 70.3513 21.2092 69.3839 21.2092C67.3638 21.2092 65.5144 22.9828 65.5144 25.259C65.5144 27.5162 67.3638 29.2803 69.3839 29.2803C70.3418 29.2803 71.11 28.8535 71.5084 28.3603H71.5653V28.9389C71.5653 30.4848 70.7402 31.3099 69.4124 31.3099C68.3312 31.3099 67.6578 30.5322 67.3828 29.8778L65.8368 30.5227C66.2826 31.5944 67.4586 32.9032 69.4124 32.9032C71.4894 32.9032 73.244 31.6798 73.244 28.7017V21.4558H71.5653V22.1102H71.5748ZM69.5357 27.6869C68.3122 27.6869 67.2879 26.6626 67.2879 25.259C67.2879 23.8364 68.3122 22.8026 69.5357 22.8026C70.7402 22.8026 71.6886 23.8458 71.6886 25.259C71.6981 26.6626 70.7496 27.6869 69.5357 27.6869ZM92.6676 17.1785H88.4282V29.0337H90.2017V24.5382H92.6771C94.6403 24.5382 96.5656 23.1156 96.5656 20.8583C96.5656 18.6011 94.6213 17.1785 92.6676 17.1785ZM92.7055 22.8879H90.1922V18.8192H92.7055C94.0333 18.8192 94.7826 19.9194 94.7826 20.8488C94.7826 21.7783 94.0333 22.8879 92.7055 22.8879ZM103.65 21.1903C102.37 21.1903 101.042 21.7593 100.492 23.0018L102.066 23.6562C102.398 23.0018 103.024 22.7836 103.679 22.7836C104.589 22.7836 105.528 23.3337 105.538 24.3106V24.4339C105.215 24.2537 104.532 23.9786 103.688 23.9786C101.991 23.9786 100.274 24.9081 100.274 26.6437C100.274 28.2275 101.659 29.2518 103.214 29.2518C104.4 29.2518 105.063 28.7207 105.471 28.0948H105.528V29.0147H107.235V24.4718C107.245 22.3663 105.67 21.1903 103.65 21.1903ZM103.432 27.6869C102.854 27.6869 102.047 27.3929 102.047 26.6816C102.047 25.7711 103.053 25.4202 103.925 25.4202C104.703 25.4202 105.073 25.5909 105.538 25.8186C105.405 26.9092 104.456 27.6869 103.432 27.6869ZM113.466 21.4463L111.437 26.5868H111.38L109.274 21.4463H107.368L110.526 28.6354L108.724 32.6282H110.574L115.439 21.4463H113.466ZM97.533 29.0337H99.3065V17.1785H97.533V29.0337Z" fill="white"/>
            <g clip-path="url(#clip0_289_850)">
            <path d="M10.8322 10.0735C10.5951 10.3112 10.5161 10.7074 10.5161 11.1827V28.6916C10.5161 29.167 10.6742 29.5631 10.9113 29.8008L10.9903 29.88L20.7901 20.056V19.8976L10.8322 10.0735Z" fill="white" stroke="black" stroke-width="2" stroke-linecap="round" stroke-linejoin="round"/>
            <path d="M24.0303 23.3835L20.79 20.1352V19.8976L24.0303 16.6493L24.1093 16.7285L27.9818 18.9468C29.0882 19.5806 29.0882 20.6106 27.9818 21.2444L24.0303 23.3835Z" fill="white" stroke="black" stroke-width="2" stroke-linecap="round" stroke-linejoin="round"/>
            <path d="M24.0303 23.3043L20.7111 19.9768L10.8323 29.88C11.2274 30.2761 11.7806 30.2761 12.4919 29.9592L24.0303 23.3043Z" fill="white" stroke="black" stroke-width="2" stroke-linecap="round" stroke-linejoin="round"/>
            <path d="M24.0303 16.6493L12.4919 10.0735C11.7806 9.67742 11.2274 9.75664 10.8323 10.1528L20.7111 19.9768L24.0303 16.6493Z" fill="white" stroke="black" stroke-width="2" stroke-linecap="round" stroke-linejoin="round"/>
            </g>
            <defs>
            <clipPath id="clip0_289_850">
            <rect width="20" height="21.9355" fill="white" transform="translate(9.87085 9.03226)"/>
            </clipPath>
            </defs>
        </symbol>
   </defs>
</svg>