<svg width="139" height="35" viewBox="0 0 139 35" fill="none" xmlns="http://www.w3.org/2000/svg">
<path d="M41.7654 18.0002H45.4374V1.20015H41.7654V18.0002Z" fill="white"/>
<path d="M48.3172 18.0002H51.8692V11.2082C51.8692 9.36016 53.2612 8.08816 55.3252 8.08816C57.3892 8.08816 58.6372 9.26416 58.6372 11.2082V18.0002H62.1892V10.7522C62.1892 7.29616 59.7412 4.92016 56.0932 4.92016C54.4132 4.92016 52.8532 5.47216 51.7972 6.48016H51.7492V5.28016H48.3172V18.0002Z" fill="white"/>
<path d="M74.4191 0.480155V5.28016H68.7791V4.41615C68.7791 3.76815 69.1391 3.43216 69.8351 3.43216H72.4991V0.384155H69.4031C66.7871 0.384155 65.2271 1.75216 65.2271 3.98416V5.28016H62.6591V8.30416H65.2271V18.0002H68.7791V8.30416H74.4191V18.0002H77.9711V0.480155H74.4191Z" fill="white"/>
<path d="M87.0283 18.3602C91.2283 18.3602 94.2043 15.4322 94.2043 11.6402C94.2043 7.84816 91.2283 4.92016 87.0283 4.92016C82.8523 4.92016 79.8523 7.84816 79.8523 11.6402C79.8523 15.4322 82.8523 18.3602 87.0283 18.3602ZM87.0283 15.2402C84.8203 15.2402 83.4043 13.7042 83.4043 11.6402C83.4043 9.57616 84.8203 8.04016 87.0283 8.04016C89.2363 8.04016 90.6523 9.57616 90.6523 11.6402C90.6523 13.7042 89.2363 15.2402 87.0283 15.2402Z" fill="white"/>
<path d="M98.1631 18.0002H101.739L105.507 8.97616H105.555L109.371 18.0002H112.923L116.547 5.28016H112.947L110.691 13.6802H110.643L107.139 5.28016H103.947L100.467 13.6802H100.419L98.1631 5.28016H94.5631L98.1631 18.0002Z" fill="white"/>
<g opacity="0.5">
<path d="M42 31.5361H47.1937C49.8051 31.5361 51.0744 30.4969 51.0744 28.3897C51.0744 27.3216 50.5346 26.4701 49.6447 26.066V26.0371C50.3012 25.6619 50.6951 24.9835 50.6951 24.1464C50.6951 22.5732 49.4258 21.433 47.646 21.433H42V31.5361ZM44.2321 25.4742V23.367H47.2812C48.0545 23.367 48.463 23.7423 48.463 24.4206C48.463 25.099 48.0545 25.4742 47.2812 25.4742H44.2321ZM44.2321 29.6021V27.1918H47.5293C48.39 27.1918 48.8423 27.6247 48.8423 28.3753C48.8423 29.1979 48.4338 29.6021 47.5147 29.6021H44.2321Z" fill="white"/>
<path d="M54.4839 31.7526C55.6364 31.7526 56.6285 31.3485 57.0953 30.699H57.1245V31.5361H59.0649V26.6722C59.0649 24.8103 57.6643 23.6701 55.403 23.6701C53.3897 23.6701 51.7995 24.7526 51.4931 26.3402L53.5356 26.7588C53.7253 25.9216 54.4693 25.3876 55.4614 25.3876C56.2929 25.3876 56.8327 25.6907 56.8327 26.1959C56.8327 26.5711 56.4388 26.7732 54.9945 26.9753C52.529 27.3072 51.5953 28.0577 51.5953 29.4722C51.5953 30.8289 52.7624 31.7526 54.4839 31.7526ZM54.8049 29.9918C53.9879 29.9918 53.6086 29.7897 53.6086 29.3278C53.6086 28.8804 54.0608 28.6351 55.3301 28.4041C56.3805 28.2165 56.789 28.0577 56.9786 27.7835H57.0078V28.6928C57.0078 29.4289 56.0595 29.9918 54.8049 29.9918Z" fill="white"/>
<path d="M60.0098 31.5361H62.169V27.4515C62.169 26.3402 63.0152 25.5753 64.2699 25.5753C65.5245 25.5753 66.2831 26.2825 66.2831 27.4515V31.5361H68.4423V27.1773C68.4423 25.099 66.9542 23.6701 64.7367 23.6701C63.7155 23.6701 62.7672 24.0021 62.1253 24.6082H62.0961V23.8866H60.0098V31.5361Z" fill="white"/>
<path d="M69.3742 31.5361H71.5334V29.501L72.9631 28.3031H72.9923L75.5745 31.5361H78.2152L74.4366 27.0041L78.0693 23.8866H75.0493L71.5626 26.9608H71.5334V21H69.3742V31.5361Z" fill="white"/>
<path d="M85.4605 31.7526C87.43 31.7526 88.9764 30.6845 89.4287 29.068L87.4154 28.4907C87.109 29.3856 86.4671 29.8763 85.4605 29.8763C84.2204 29.8763 83.345 28.9959 83.345 27.7113C83.345 26.4268 84.2204 25.5464 85.4605 25.5464C86.4671 25.5464 87.1382 26.0948 87.4154 26.932L89.4287 26.3546C88.9764 24.7381 87.43 23.6701 85.4605 23.6701C83.0387 23.6701 81.1859 25.4021 81.1859 27.7113C81.1859 30.0206 83.0387 31.7526 85.4605 31.7526Z" fill="white"/>
<path d="M90.073 31.5361H92.2322V27.4515C92.2322 26.3402 93.0783 25.5753 94.333 25.5753C95.5877 25.5753 96.3463 26.2825 96.3463 27.4515V31.5361H98.5055V27.1629C98.5055 25.099 97.0174 23.6701 94.7998 23.6701C93.7786 23.6701 92.9033 24.0021 92.2613 24.6082H92.2322V21H90.073V31.5361Z" fill="white"/>
<path d="M102.122 31.7526C103.274 31.7526 104.266 31.3485 104.733 30.699H104.762V31.5361H106.703V26.6722C106.703 24.8103 105.302 23.6701 103.041 23.6701C101.028 23.6701 99.4373 24.7526 99.131 26.3402L101.173 26.7588C101.363 25.9216 102.107 25.3876 103.099 25.3876C103.931 25.3876 104.471 25.6907 104.471 26.1959C104.471 26.5711 104.077 26.7732 102.632 26.9753C100.167 27.3072 99.2331 28.0577 99.2331 29.4722C99.2331 30.8289 100.4 31.7526 102.122 31.7526ZM102.443 29.9918C101.626 29.9918 101.246 29.7897 101.246 29.3278C101.246 28.8804 101.699 28.6351 102.968 28.4041C104.018 28.2165 104.427 28.0577 104.616 27.7835H104.646V28.6928C104.646 29.4289 103.697 29.9918 102.443 29.9918Z" fill="white"/>
<path d="M107.648 31.5361H109.807V28.0433C109.807 26.4557 110.522 25.7052 111.674 25.7052C112.097 25.7052 112.375 25.7485 112.798 25.8639L113.25 23.9443C112.812 23.8144 112.404 23.7423 111.981 23.7423C111.047 23.7423 110.274 24.0454 109.705 24.6227H109.676V23.8866H107.648V31.5361Z" fill="white"/>
<path d="M117.468 35C119.919 35 121.641 33.499 121.641 31.334V23.8866H119.569V24.6371H119.54C118.986 24.0598 118.067 23.7423 116.972 23.7423C114.624 23.7423 112.887 25.4742 112.887 27.7113C112.887 30.0351 114.667 31.7381 117.045 31.7381C118.11 31.7381 119 31.4062 119.54 30.8144H119.569V31.3629C119.569 32.4021 118.665 33.167 117.468 33.167C116.33 33.167 115.674 32.8495 114.872 31.9113L113.325 33.1814C114.244 34.3649 115.689 35 117.468 35ZM117.293 29.8619C115.907 29.8619 115.047 29.0536 115.047 27.7113C115.047 26.4701 115.966 25.6186 117.381 25.6186C118.504 25.6186 119.482 26.3979 119.482 27.2784V28.1732C119.482 29.1113 118.519 29.8619 117.293 29.8619Z" fill="white"/>
<path d="M126.599 31.7526C128.262 31.7526 129.415 31.1753 130.305 30.2082L128.962 28.8804C128.218 29.6454 127.547 30.0206 126.584 30.0206C125.286 30.0206 124.469 29.3856 124.396 28.3897H130.669V27.7835C130.669 25.4887 129.065 23.6701 126.468 23.6701C124.017 23.6701 122.266 25.3732 122.266 27.7258C122.266 30.1505 123.885 31.7526 126.599 31.7526ZM124.425 26.8887C124.542 25.9938 125.344 25.4021 126.511 25.4021C127.664 25.4021 128.466 25.9938 128.568 26.8887H124.425Z" fill="white"/>
<path d="M135.134 31.7526C137.468 31.7526 139 30.8 139 29.3711C139 27.9711 137.935 27.2784 135.353 26.8742C133.66 26.6 133.237 26.4268 133.237 26.0371C133.237 25.633 133.806 25.3732 134.711 25.3732C135.747 25.3732 136.578 25.8351 136.87 26.5711L138.84 25.9794C138.416 24.6371 136.68 23.6701 134.725 23.6701C132.581 23.6701 131.166 24.6227 131.166 26.0371C131.166 27.3938 132.187 28.0866 135.003 28.5196C136.418 28.7361 136.914 28.9381 136.914 29.3856C136.914 29.8041 136.272 30.0495 135.148 30.0495C133.894 30.0495 133.121 29.5588 132.814 28.5773L130.786 29.0536C131.166 30.7134 132.858 31.7526 135.134 31.7526Z" fill="white"/>
</g>
<path fill-rule="evenodd" clip-rule="evenodd" d="M11.1518 19.7656C11.2494 20.0015 11.394 20.2225 11.5858 20.4142C11.7775 20.606 11.9985 20.7506 12.2344 20.8482C12.4702 20.946 12.7288 21 13 21H20C21.1046 21 22 20.1046 22 19C22 17.8954 21.1046 17 20 17H17.8284L30.157 4.67143C31.3201 6.37998 32 8.44392 32 10.6667V21.3333C32 27.2244 27.2244 32 21.3333 32H10.6667C4.77563 32 0 27.2244 0 21.3333V10.6667C0 4.77563 4.77563 0 10.6667 0H21.3333C23.5561 0 25.62 0.679869 27.3286 1.843L15 14.1716V12C15 10.8954 14.1046 10 13 10C11.8954 10 11 10.8954 11 12V19C11 19.2712 11.054 19.5298 11.1518 19.7656Z" fill="white"/>
</svg>
