<svg width="117" height="32" viewBox="0 0 117 32" fill="none" xmlns="http://www.w3.org/2000/svg">
<path d="M41.7656 24H45.4376V7.20003H41.7656V24Z" fill="black"/>
<path d="M48.3174 24H51.8694V17.208C51.8694 15.36 53.2614 14.088 55.3254 14.088C57.3894 14.088 58.6374 15.264 58.6374 17.208V24H62.1894V16.752C62.1894 13.296 59.7414 10.92 56.0934 10.92C54.4134 10.92 52.8534 11.472 51.7974 12.48H51.7494V11.28H48.3174V24Z" fill="black"/>
<path d="M74.4193 6.48003V11.28H68.7793V10.416C68.7793 9.76803 69.1393 9.43203 69.8353 9.43203H72.4993V6.38403H69.4033C66.7873 6.38403 65.2273 7.75203 65.2273 9.98403V11.28H62.6593V14.304H65.2273V24H68.7793V14.304H74.4193V24H77.9713V6.48003H74.4193Z" fill="black"/>
<path d="M87.0285 24.36C91.2285 24.36 94.2045 21.432 94.2045 17.64C94.2045 13.848 91.2285 10.92 87.0285 10.92C82.8525 10.92 79.8525 13.848 79.8525 17.64C79.8525 21.432 82.8525 24.36 87.0285 24.36ZM87.0285 21.24C84.8205 21.24 83.4045 19.704 83.4045 17.64C83.4045 15.576 84.8205 14.04 87.0285 14.04C89.2365 14.04 90.6525 15.576 90.6525 17.64C90.6525 19.704 89.2365 21.24 87.0285 21.24Z" fill="black"/>
<path d="M98.1634 24H101.739L105.507 14.976H105.555L109.371 24H112.923L116.547 11.28H112.947L110.691 19.68H110.643L107.139 11.28H103.947L100.467 19.68H100.419L98.1634 11.28H94.5634L98.1634 24Z" fill="black"/>
<path fill-rule="evenodd" clip-rule="evenodd" d="M11.1518 19.7656C11.2494 20.0015 11.394 20.2225 11.5858 20.4142C11.7775 20.606 11.9985 20.7506 12.2344 20.8482C12.4702 20.946 12.7288 21 13 21H20C21.1046 21 22 20.1046 22 19C22 17.8954 21.1046 17 20 17H17.8284L30.157 4.67143C31.3201 6.37998 32 8.44392 32 10.6667V21.3333C32 27.2244 27.2244 32 21.3333 32H10.6667C4.77563 32 0 27.2244 0 21.3333V10.6667C0 4.77563 4.77563 0 10.6667 0H21.3333C23.5561 0 25.62 0.679869 27.3286 1.843L15 14.1716V12C15 10.8954 14.1046 10 13 10C11.8954 10 11 10.8954 11 12V19C11 19.2712 11.054 19.5298 11.1518 19.7656Z" fill="#8D45CD"/>
</svg>
